<?xml version="1.0" encoding="utf-8"?>
<!-- Generator: Adobe Illustrator 26.0.3, SVG Export Plug-In . SVG Version: 6.00 Build 0)  -->
<svg version="1.1" id="Layer_1" xmlns="http://www.w3.org/2000/svg" xmlns:xlink="http://www.w3.org/1999/xlink" x="0px" y="0px"
	 viewBox="0 0 140.8 53.1" style="enable-background:new 0 0 140.8 53.1;" xml:space="preserve">
<style type="text/css">
	.st0{fill:#FFF;}
</style>
<path class="st0" d="M15.9,4.3c0-2.2,1.8-4,4-4l6.5,0v0c0,0,0,0,0,0c0,0,0,0,0,0h0.2v0c15.1,0.1,27.2,13,26.1,28.3
	c-0.9,13-11.5,23.5-24.4,24.4C12.9,54.1,0,41.9,0,26.7L0,4.3c0-2.2,1.8-4,4-4h0c2.2,0,4,1.8,4,4v22c0,10,7.9,18.5,17.9,18.8
	c10.4,0.3,19-8.1,19-18.4c0-10.2-8.3-18.4-18.4-18.4l-6.5,0C17.7,8.3,15.9,6.5,15.9,4.3L15.9,4.3z"/>
<g>
	<path class="st0" d="M70.7,47.3c0.5,0.6,0.7,1.3,0.7,2.1c0,1.1-0.4,2-1.2,2.6c-0.8,0.7-1.9,1-3.3,1h-6.2V39.6h6
		c1.4,0,2.4,0.3,3.2,0.9c0.8,0.6,1.1,1.5,1.1,2.5c0,0.8-0.2,1.4-0.6,2c-0.4,0.5-1,0.9-1.6,1.1C69.6,46.3,70.3,46.7,70.7,47.3z
		 M64,45h2.1c0.5,0,0.9-0.1,1.2-0.4c0.3-0.2,0.4-0.6,0.4-1s-0.1-0.8-0.4-1c-0.3-0.2-0.7-0.4-1.2-0.4H64V45z M67.7,50
		c0.3-0.2,0.4-0.6,0.4-1.1s-0.2-0.8-0.5-1.1c-0.3-0.3-0.7-0.4-1.3-0.4H64v2.9h2.4C67,50.3,67.4,50.2,67.7,50z"/>
	<path class="st0" d="M76.5,39.6v8c0,0.8,0.2,1.4,0.6,1.8c0.4,0.4,1,0.6,1.7,0.6s1.3-0.2,1.7-0.6c0.4-0.4,0.6-1,0.6-1.8v-8h3.2v7.9
		c0,1.2-0.3,2.2-0.8,3c-0.5,0.8-1.2,1.4-2,1.9c-0.9,0.4-1.8,0.6-2.9,0.6s-2-0.2-2.8-0.6c-0.8-0.4-1.5-1-2-1.9
		c-0.5-0.8-0.7-1.8-0.7-3v-7.9H76.5z"/>
	<path class="st0" d="M89.9,50.5h4.2V53h-7.5V39.6h3.2V50.5z"/>
	<path class="st0" d="M98.9,39.6v8c0,0.8,0.2,1.4,0.6,1.8c0.4,0.4,1,0.6,1.7,0.6s1.3-0.2,1.7-0.6c0.4-0.4,0.6-1,0.6-1.8v-8h3.2v7.9
		c0,1.2-0.3,2.2-0.8,3c-0.5,0.8-1.2,1.4-2,1.9c-0.9,0.4-1.8,0.6-2.9,0.6s-2-0.2-2.8-0.6s-1.5-1-2-1.9c-0.5-0.8-0.7-1.8-0.7-3v-7.9
		H98.9z"/>
	<path class="st0" d="M118.7,39.6v2.6h-3.5V53h-3.2V42.2h-3.5v-2.6H118.7z"/>
	<path class="st0" d="M123.5,50.5h4.2V53h-7.5V39.6h3.2V50.5z"/>
	<path class="st0" d="M140.8,39.6l-4.6,8.9V53h-3.2v-4.4l-4.6-8.9h3.7l2.6,5.6l2.6-5.6H140.8z"/>
</g>
</svg>
